<?xml version="1.0" encoding="UTF-8" standalone="no"?>
<!-- Created with Inkscape (http://www.inkscape.org/) -->

<svg
   width="210.04874mm"
   height="58.321724mm"
   viewBox="0 0 210.04874 58.321724"
   version="1.1"
   id="svg1"
   xml:space="preserve"
   inkscape:export-filename="UT.jpg"
   inkscape:export-xdpi="96"
   inkscape:export-ydpi="96"
   xmlns:inkscape="http://www.inkscape.org/namespaces/inkscape"
   xmlns:sodipodi="http://sodipodi.sourceforge.net/DTD/sodipodi-0.dtd"
   xmlns="http://www.w3.org/2000/svg"
   xmlns:svg="http://www.w3.org/2000/svg"><sodipodi:namedview
     id="namedview1"
     pagecolor="#ffffff"
     bordercolor="#000000"
     borderopacity="0.25"
     inkscape:showpageshadow="2"
     inkscape:pageopacity="0.0"
     inkscape:pagecheckerboard="0"
     inkscape:deskcolor="#d1d1d1"
     inkscape:document-units="mm"><inkscape:page
       x="0"
       y="0"
       width="210.04874"
       height="58.321724"
       id="page2"
       margin="0"
       bleed="0" /></sodipodi:namedview><defs
     id="defs1" /><g
     inkscape:label="Calque 1"
     inkscape:groupmode="layer"
     id="layer1"
     transform="translate(0.01602731,-77.319754)"><path
       style="fill:#000000"
       d="m 19.338235,135.60592 c -1.569912,-0.16775 -4.253586,-0.66613 -5.441176,-1.01047 -2.659734,-0.7712 -4.3396342,-1.57331 -6.2276463,-2.97356 -3.4247084,-2.53994 -5.704128,-6.3235 -6.76806296,-11.23416 C 0.07985583,116.59607 0.10026597,117.16264 0.03988052,96.474165 L -0.01602731,77.319756 H 9.3302216 18.676471 l 0.0022,18.639704 c 0.0012,10.36701 0.06493,19.5584 0.143556,20.70967 0.325382,4.76417 1.485044,8.30526 3.669049,11.20365 2.350661,3.11956 6.108062,5.14407 10.120155,5.4528 2.001079,0.15398 1.743174,0.61774 -0.701906,1.26215 -3.03714,0.80044 -4.681605,1.00344 -8.453623,1.04353 -1.941176,0.0206 -3.794117,0.009 -4.117647,-0.0253 z m 16.794137,-2.64399 c -0.05121,-0.0512 0.301428,-0.5237 0.783652,-1.04996 3.407624,-3.71882 4.361844,-8.00922 4.643658,-20.87898 l 0.100631,-4.59559 h 3.802196 3.802197 l -6.83e-4,2.90441 c -8.63e-4,3.66574 -0.226557,7.26578 -0.58703,9.36369 -1.266626,7.37162 -4.687416,11.71407 -11.001934,13.96616 -1.113991,0.39731 -1.384705,0.44825 -1.542687,0.29027 z m 30.740344,-5.35208 c -1.780873,-0.4483 -3.095769,-1.84915 -3.725219,-3.96874 -0.591291,-1.99109 -0.535085,-5.60781 0.118069,-7.59746 0.58807,-1.79138 1.912,-3.18857 3.402473,-3.59075 0.336255,-0.0907 1.173873,-0.13806 1.861373,-0.10517 2.069919,0.099 3.256879,0.95368 4.255179,3.06392 l 0.450471,0.95222 1.16e-4,-4.52206 1.16e-4,-4.52206 H 75 76.764706 v 10 10 H 75 73.235294 v -1.85799 -1.858 l -0.514903,1.02923 c -0.584318,1.16799 -1.65162,2.26167 -2.629048,2.69403 -0.749426,0.33151 -2.436389,0.47975 -3.218627,0.28283 z m 4.132544,-3.25923 c 0.653414,-0.20012 1.439277,-0.9088 1.828916,-1.6493 0.260707,-0.49546 0.326614,-0.91484 0.371963,-2.36686 0.04783,-1.53161 0.01339,-1.87577 -0.260766,-2.60553 -0.865147,-2.30289 -3.829039,-3.08774 -5.60417,-1.48402 -0.88419,0.79881 -1.223125,2.06404 -1.128352,4.21207 0.07463,1.69145 0.246562,2.31749 0.845598,3.07894 0.778008,0.98896 2.331105,1.30955 3.946811,0.8147 z m 14.215328,3.31145 c -2.73508,-0.2078 -4.882361,-1.5508 -5.892065,-3.68514 -1.106443,-2.33883 -0.967564,-6.19215 0.301204,-8.35714 0.954288,-1.62837 2.557306,-2.76745 4.446559,-3.15966 1.098818,-0.22811 3.725924,-0.10599 4.600185,0.21384 1.030925,0.37714 2.134868,1.21189 2.705946,2.04609 0.849686,1.24119 1.006672,1.84756 1.082331,4.18057 l 0.06796,2.09559 h -5.236942 c -5.949213,0 -5.457223,-0.1276 -4.997415,1.29611 0.48425,1.4994 1.605131,2.36163 3.240737,2.49292 1.774459,0.14243 3.073812,-0.47371 3.615106,-1.71425 0.162641,-0.37275 0.311719,-0.69679 0.331284,-0.72011 0.01957,-0.0233 0.672748,0.1376 1.451518,0.35758 1.618184,0.45708 1.636438,0.48694 1.052419,1.72146 -0.558439,1.18044 -1.287054,1.93003 -2.433546,2.5036 -1.118376,0.5595 -2.812679,0.84422 -4.335281,0.72854 z m 4.033654,-9.7374 c -0.144476,-0.91395 -0.589768,-1.78866 -1.150958,-2.26087 -1.213456,-1.02105 -3.863313,-0.83091 -4.971101,0.35671 -0.36481,0.3911 -0.846286,1.4273 -0.996603,2.14483 l -0.100126,0.47794 h 3.666193 3.666193 z m 29.326158,9.685 c -3.05763,-0.55012 -5.07861,-2.59379 -5.66746,-5.7311 -0.24342,-1.29686 -0.068,-4.02844 0.32577,-5.07352 1.13299,-3.00684 3.45082,-4.4853 7.03175,-4.4853 3.6052,0 6.04424,1.76198 7.02308,5.07353 0.32029,1.08357 0.36084,3.74796 0.075,4.92647 -0.62292,2.56813 -2.38602,4.44877 -4.77296,5.09115 -0.99477,0.26772 -3.0629,0.3701 -4.01516,0.19877 z m 3.66618,-3.42467 c 0.37146,-0.21769 0.82088,-0.60014 0.99872,-0.84989 0.50723,-0.71233 0.87235,-2.09382 0.87235,-3.30063 0,-3.00084 -1.17198,-4.57074 -3.53858,-4.74007 -1.42402,-0.10189 -2.23877,0.15779 -3.09452,0.98629 -0.87349,0.84568 -1.21408,1.87976 -1.21408,3.68611 0,1.80375 0.34087,2.84069 1.2106,3.68275 0.86718,0.8396 1.40694,1.02026 2.90012,0.97072 0.98261,-0.0326 1.30773,-0.10847 1.86539,-0.43528 z m 10.44848,3.43128 c -1.76859,-0.37545 -2.9356,-1.7465 -3.27691,-3.84988 -0.0832,-0.51257 -0.15172,-3.23158 -0.15233,-6.04224 l -0.001,-5.11029 h 1.75752 1.75753 l 0.0439,5.03676 c 0.0414,4.74784 0.0613,5.07051 0.34659,5.625 0.45124,0.87709 1.32682,1.28972 2.56618,1.20936 1.44238,-0.0935 2.37594,-0.65458 2.99108,-1.79759 0.30235,-0.56182 0.31856,-0.80119 0.36088,-5.33088 l 0.0443,-4.74265 h 1.75716 1.75716 v 7.35294 7.35294 h -1.69118 -1.69117 v -1.91176 c 0,-1.05147 -0.0496,-1.90999 -0.1103,-1.90781 -0.0607,0.002 -0.30291,0.43508 -0.53833,0.96201 -0.57705,1.2916 -1.37495,2.16115 -2.48414,2.7072 -1.00855,0.49651 -2.36954,0.67347 -3.43688,0.44689 z m 24.03485,0.002 c -3.35356,-0.61156 -5.32801,-2.67316 -5.84967,-6.10785 -0.43557,-2.8679 0.37783,-5.76436 2.06088,-7.33866 1.35435,-1.26683 3.02728,-1.85252 5.29149,-1.85252 4.63297,0 7.35128,2.82768 7.35128,7.64706 0,3.80604 -1.67763,6.42314 -4.72546,7.37173 -1.0436,0.3248 -3.11363,0.46532 -4.12852,0.28024 z m 2.79649,-3.11884 c 0.93985,-0.23665 1.9541,-1.25721 2.32139,-2.33583 0.40396,-1.18631 0.3708,-3.46023 -0.0668,-4.58224 -0.39801,-1.02046 -1.33091,-1.90377 -2.29604,-2.17399 -1.65817,-0.46425 -3.63485,0.12381 -4.42387,1.31611 -1.02875,1.55454 -1.05157,4.80191 -0.0452,6.43027 0.78866,1.27608 2.61869,1.82205 4.51053,1.34568 z m 11.16985,3.10991 c -1.39499,-0.35116 -2.21237,-1.0442 -2.85705,-2.42245 l -0.41273,-0.88236 -0.0445,-5.84558 -0.0445,-5.84559 h 1.76712 1.76712 l 0.0421,5.21003 c 0.0404,4.99808 0.0545,5.22654 0.34534,5.61591 0.53941,0.72208 1.03493,0.98926 1.95864,1.05608 1.57294,0.11378 2.85175,-0.54265 3.46858,-1.78046 l 0.37251,-0.74754 v -4.67701 -4.67701 h 1.76471 1.76471 v 7.35294 7.35294 h -1.68691 -1.68691 l -0.041,-1.94853 c -0.037,-1.75432 -0.0603,-1.90456 -0.2341,-1.50735 -0.75646,1.7286 -1.79548,2.91953 -3.01949,3.46097 -0.75368,0.33339 -2.43933,0.48243 -3.22355,0.28501 z m 16.65558,0.008 c -2.70957,-0.34995 -4.45926,-1.79272 -4.97891,-4.10551 -0.15414,-0.68602 -0.2921,-0.60306 1.65941,-0.99786 1.08901,-0.22032 1.3231,-0.23128 1.37869,-0.0645 0.0368,0.11046 0.24358,0.53896 0.45947,0.95221 0.56015,1.07227 1.43354,1.58712 2.84441,1.67676 1.93393,0.12287 3.04981,-0.50214 3.04981,-1.70823 0,-1.06953 -0.73356,-1.5493 -3.16395,-2.06933 -2.53741,-0.54294 -3.61727,-0.97058 -4.57564,-1.81204 -0.79052,-0.69409 -1.07687,-1.43576 -1.08071,-2.7992 -0.005,-1.79418 0.58102,-2.83862 2.0219,-3.60314 1.16575,-0.61854 2.34758,-0.81848 4.33249,-0.73297 1.8549,0.0799 2.90791,0.39258 3.79983,1.12829 0.619,0.51058 1.43581,1.96775 1.49326,2.66393 l 0.0405,0.49025 -1.50654,0.32467 -1.50655,0.32467 -0.16866,-0.56295 c -0.39098,-1.30497 -1.29311,-1.90051 -2.88145,-1.90221 -1.48287,-0.002 -2.39268,0.65392 -2.39268,1.72386 0,0.96979 0.85457,1.50224 3.28985,2.04977 3.55976,0.80036 4.87663,1.582 5.47092,3.24731 0.46464,1.302 0.1119,3.18569 -0.7818,4.1749 -1.24869,1.38216 -3.81817,1.98693 -6.80361,1.60135 z m 14.92758,-0.0102 c -3.08443,-0.32608 -5.2416,-2.18464 -5.96668,-5.14074 -0.25406,-1.03576 -0.25573,-3.6597 -0.003,-4.70588 0.51783,-2.14357 1.84028,-3.88912 3.56408,-4.70435 1.29286,-0.61143 2.29544,-0.78323 4.09404,-0.70158 2.32598,0.1056 3.74212,0.75381 4.8024,2.19821 0.92296,1.25732 1.12523,1.99143 1.19786,4.34742 l 0.0646,2.09559 h -5.25331 -5.25331 l 0.10152,0.55147 c 0.36488,1.98215 1.47924,3.04717 3.3734,3.22405 1.82183,0.17013 3.17429,-0.4813 3.71155,-1.7877 0.15,-0.36475 0.30582,-0.66199 0.34626,-0.66053 0.0404,0.001 0.70221,0.18793 1.47059,0.41436 1.18918,0.35044 1.38999,0.4539 1.34952,0.69532 -0.0993,0.59228 -0.74865,1.8129 -1.27356,2.39392 -0.71456,0.79093 -2.31855,1.59151 -3.41969,1.70681 -1.67581,0.17548 -1.89128,0.18094 -2.90627,0.0736 z m 4.47596,-9.6628 c -0.15685,-0.97415 -0.34023,-1.39277 -0.87878,-2.00615 -1.13348,-1.29097 -4.00566,-1.24611 -5.24441,0.0819 -0.36481,0.3911 -0.84628,1.4273 -0.9966,2.14483 l -0.10013,0.47794 h 3.6662 3.66619 z m -102.63772,1.72794 v -7.64706 H 101.25 98.382353 v -1.69117 -1.69118 h 7.499997 7.5 v 1.69118 1.69117 h -2.79411 -2.79412 v 7.64706 7.64706 h -1.83824 -1.83823 z m 41.17647,-2.35294 v -10 h 1.7647 1.76471 v 10 10 h -1.76471 -1.7647 z M 69.154485,104.30261 c -2.017916,-0.43836 -3.848433,-1.77273 -4.656307,-3.39426 -0.765023,-1.535511 -0.817181,-2.107856 -0.819534,-8.993008 l -0.0022,-6.360293 h 1.838235 1.838235 v 6.022173 c 0,3.693143 0.06039,6.303745 0.156142,6.750236 0.251669,1.173494 0.855349,1.977942 1.851276,2.466962 0.774331,0.38021 1.008065,0.42239 2.340727,0.42239 1.356594,0 1.552191,-0.0369 2.33714,-0.44117 0.703923,-0.36253 0.93811,-0.58537 1.31362,-1.250004 l 0.456978,-0.808824 0.04248,-6.580881 0.04248,-6.580882 h 1.832515 1.832515 l -0.0026,6.360293 c -0.0028,7.051325 -0.06334,7.673842 -0.898123,9.240058 -0.851351,1.5973 -2.459361,2.72144 -4.516517,3.15745 -1.222571,0.25912 -3.771266,0.25388 -4.987145,-0.0102 z m 54.521985,0.1215 c -2.34227,-0.39165 -4.3478,-1.98719 -5.13185,-4.08276 -0.45608,-1.218976 -0.64105,-3.079623 -0.455,-4.576823 0.30812,-2.479616 1.05525,-3.938462 2.67117,-5.215774 2.43134,-1.921866 7.03687,-1.872338 9.22976,0.09926 1.44604,1.30011 2.25034,3.866684 1.98581,6.336812 l -0.0989,0.923167 h -5.21982 -5.21982 l 0.0953,0.55147 c 0.17913,1.036276 0.84157,2.124558 1.56576,2.572288 0.92183,0.56992 2.17584,0.78691 3.25228,0.56276 1.10206,-0.22949 1.69919,-0.65831 2.16419,-1.55417 0.2099,-0.404407 0.39842,-0.763088 0.41891,-0.797065 0.0205,-0.03398 0.70056,0.12347 1.51124,0.349881 1.66886,0.466084 1.61638,0.360759 0.91484,1.836234 -0.9903,2.08281 -3.00135,3.1144 -5.99275,3.07404 -0.72794,-0.01 -1.48897,-0.0455 -1.69118,-0.0793 z m 5.06144,-9.494062 c -0.12421,-0.87129 -0.73887,-2.109102 -1.21023,-2.437194 -0.92388,-0.643074 -2.52494,-0.809738 -3.72188,-0.387433 -1.12329,0.396319 -1.96788,1.517385 -2.23882,2.971686 l -0.089,0.477941 h 3.67453 3.67454 z m 18.3556,9.447392 c -1.89052,-0.39584 -3.37227,-1.57291 -3.98034,-3.16188 -0.54394,-1.421404 -0.52064,-1.463576 0.96771,-1.751814 0.70772,-0.137058 1.39166,-0.279461 1.51985,-0.31645 0.16666,-0.04809 0.28879,0.101509 0.42851,0.524865 0.49452,1.498409 1.76907,2.285929 3.67664,2.271739 1.66379,-0.0124 2.5,-0.57531 2.5,-1.68297 0,-1.118085 -0.73058,-1.570318 -3.56385,-2.206037 -4.10982,-0.922147 -5.38823,-2.108421 -5.22938,-4.852506 0.11358,-1.961959 1.04746,-3.071774 3.12264,-3.710902 1.46358,-0.450766 3.85301,-0.449263 5.3228,0.0033 1.69898,0.523188 2.89139,1.82969 3.23418,3.543622 0.0671,0.335338 0.0265,0.444871 -0.18714,0.505244 -0.66968,0.189246 -2.70935,0.578751 -2.75361,0.525843 -0.027,-0.03224 -0.21873,-0.434936 -0.42612,-0.894886 -0.49608,-1.100216 -1.1178,-1.443138 -2.61643,-1.443138 -1.23048,0 -1.96339,0.288012 -2.27721,0.89488 -0.44513,0.860773 -0.11445,1.708044 0.84805,2.172922 0.34596,0.167093 1.48931,0.49787 2.54078,0.735059 2.29115,0.516836 3.3575,0.964839 4.24608,1.783904 0.87088,0.80275 1.18347,1.705311 1.08941,3.145445 -0.0829,1.26896 -0.4549,2.06179 -1.3114,2.79493 -1.07896,0.92355 -1.95209,1.16411 -4.39174,1.20999 -1.17279,0.0221 -2.41454,-0.019 -2.75943,-0.0912 z m 20.53624,-0.0461 c -1.31104,-0.48998 -2.05754,-1.24313 -2.57691,-2.59981 -0.21345,-0.55757 -0.26277,-1.35061 -0.31322,-5.036766 l -0.0599,-4.375 h -0.9428 -0.94281 v -1.397059 -1.397058 h 0.95588 0.95588 v -1.985294 -1.985294 h 1.76471 1.7647 v 1.985294 1.985294 h 2.13236 2.13235 v 1.397058 1.397059 h -2.13235 -2.13236 l 2.3e-4,3.786764 c 2.5e-4,4.140202 0.0806,4.595292 0.88213,4.995782 0.45972,0.22971 1.57588,0.23982 2.44051,0.0221 0.36244,-0.0913 0.6853,-0.13963 0.71746,-0.10747 0.0322,0.0322 0.15052,0.72791 0.26304,1.54612 l 0.20458,1.48767 -0.52603,0.17909 c -0.80397,0.27371 -3.94097,0.34312 -4.58746,0.10151 z m 11.4879,0.0927 c -1.48591,-0.24874 -2.76754,-0.92796 -3.78908,-2.00809 -1.30982,-1.38493 -1.83372,-2.896441 -1.84283,-5.316785 -0.009,-2.462621 0.57003,-4.293549 1.80091,-5.69191 1.91071,-2.170673 5.49366,-2.888055 8.60683,-1.723268 2.38974,0.894114 3.89019,3.983302 3.53694,7.281958 l -0.10089,0.942044 h -5.21555 -5.21554 l 0.0909,0.55147 c 0.17128,1.038484 0.82572,2.124051 1.55072,2.572291 0.92183,0.56992 2.17585,0.78691 3.25229,0.56276 1.11695,-0.23259 1.73491,-0.67439 2.17819,-1.55724 0.2022,-0.402721 0.38441,-0.760021 0.40491,-0.793998 0.0205,-0.03398 0.70055,0.12347 1.51123,0.349881 1.66886,0.466087 1.61639,0.360759 0.91485,1.836237 -0.99031,2.08281 -3.00135,3.1144 -5.99276,3.07404 -0.72794,-0.01 -1.48897,-0.0455 -1.69117,-0.0794 z m 5.06143,-9.493992 c -0.12421,-0.87129 -0.73886,-2.109102 -1.21022,-2.437194 -0.87868,-0.611608 -2.39124,-0.799142 -3.57791,-0.443606 -1.15798,0.346939 -2.10831,1.554539 -2.38279,3.027859 l -0.089,0.477941 h 3.67453 3.67453 z M 82.352941,96.883244 v -7.357607 h 1.686908 1.686908 l 0.04103,1.948529 c 0.03694,1.754324 0.06028,1.904558 0.234099,1.507353 0.817485,-1.868051 1.952057,-3.089681 3.292746,-3.545406 1.864911,-0.633917 4.003808,-0.184491 5.111626,1.074056 1.08099,1.228069 1.09255,1.307375 1.148093,7.875761 l 0.04943,5.84559 H 93.91362 92.223456 l -0.04555,-5.036767 c -0.04547,-5.027836 -0.04619,-5.037872 -0.403507,-5.661751 -1.047911,-1.829648 -4.311556,-1.564822 -5.46169,0.443185 -0.352819,0.615984 -0.357651,0.676642 -0.430355,5.40239 l -0.07353,4.779413 -1.727942,0.0414 -1.727941,0.0414 z m 16.029412,-0.0047 v -7.35294 h 1.691177 1.69118 v 7.35294 7.352946 h -1.69118 -1.691177 z m 9.804907,7.246416 c -0.0385,-0.0627 -1.24378,-3.29053 -2.67832,-7.172886 -1.43455,-3.882353 -2.63932,-7.141544 -2.67728,-7.242647 -0.053,-0.141121 0.37138,-0.183823 1.82676,-0.183823 h 1.89576 l 1.71497,5.404411 c 0.94324,2.972426 1.75881,5.586395 1.81238,5.808825 0.13909,0.57744 0.59079,0.53477 0.77823,-0.0735 1.13799,-3.692996 3.47023,-10.946413 3.54788,-11.034137 0.056,-0.06326 0.90181,-0.09635 1.87959,-0.07353 l 1.77778,0.04149 -2.68214,7.279411 -2.68215,7.279416 -2.2217,0.0405 c -1.22194,0.0223 -2.25323,-0.0108 -2.29176,-0.0735 z m 25.73431,0.008 c -0.0539,-0.0539 -0.098,-3.36275 -0.098,-7.352945 v -7.254901 h 1.69118 1.69117 l 0.007,2.242647 0.007,2.242646 0.4105,-1.199683 c 0.79661,-2.328045 2.04075,-3.432669 3.86623,-3.432669 h 0.85598 v 1.889743 1.889744 l -1.32459,0.09402 c -1.94797,0.138271 -2.67607,0.501851 -3.28665,1.641196 -0.29856,0.557127 -0.31769,0.819603 -0.36182,4.963235 l -0.0466,4.374997 h -1.65684 c -0.91126,0 -1.70095,-0.0441 -1.75487,-0.098 z m 23.67647,0 c -0.0539,-0.0539 -0.098,-3.36275 -0.098,-7.352945 v -7.254901 h 1.76471 1.7647 v 7.35294 7.352946 h -1.66666 c -0.91667,0 -1.71079,-0.0441 -1.76471,-0.098 z M 41.617647,89.378578 V 80.113873 H 38.75 35.882353 V 78.716814 77.319756 H 45.441176 55 v 1.397058 1.397059 h -2.855903 -2.855904 l -0.05972,5.845588 c -0.06629,6.488152 -0.09202,6.691935 -1.083214,8.578183 -1.175585,2.237142 -3.915931,4.096101 -6.04967,4.103893 l -0.477941,0.0017 z m 136.321843,-2.062161 -0.4401,-0.871836 0.33119,-0.208537 c 0.18215,-0.114696 1.6878,-0.987425 3.34589,-1.939398 1.65809,-0.951974 3.15767,-1.823032 3.33241,-1.935685 0.30477,-0.196486 0.34491,-0.155129 0.98602,1.015971 0.36757,0.671437 0.62018,1.268921 0.56136,1.327741 -0.0905,0.09046 -5.72052,2.657033 -7.19735,3.281048 l -0.47932,0.202532 z m -79.704196,-1.54078 v -1.397059 h 1.838236 1.83823 v 1.397059 1.397059 h -1.83823 -1.838236 z m 59.264706,0 v -1.397059 h 1.83824 1.83823 v 1.397059 1.397059 H 159.33824 157.5 Z"
       id="path1" /></g></svg>
